<svg width="125" height="31" viewBox="0 0 125 31" fill="none" xmlns="http://www.w3.org/2000/svg">
<circle cx="15.2311" cy="15.2311" r="15.2311" fill="#5F5FFF"/>
<circle cx="14.1509" cy="19.768" r="3.13264" fill="#FCFCFC"/>
<path d="M25.3608 12.6835C24.2053 13.9675 19.1218 18.1725 17.8378 17.017C16.5538 15.8616 20.1368 10.3063 21.2922 9.02226C22.4477 7.73827 24.167 7.40162 25.451 8.55708C26.7349 9.71255 26.5162 11.3995 25.3608 12.6835Z" fill="#FCFCFC"/>
<path d="M8.05695 11.1464C8.92257 12.1717 11.6197 16.5295 10.5944 17.3951C9.56904 18.2607 5.6737 14.9145 4.80807 13.8892C3.94245 12.8639 3.86563 11.5051 4.89095 10.6395C5.91626 9.77389 7.19133 10.121 8.05695 11.1464Z" fill="#FCFCFC"/>
<path d="M47.3235 12.7268C47.3235 13.4103 47.1667 14.0377 46.8529 14.6092C46.5392 15.1694 46.0574 15.6232 45.4076 15.9705C44.7577 16.3178 43.951 16.4915 42.9874 16.4915H41.2059V20.7268H38.3319V8.92849H42.9874C43.9286 8.92849 44.7241 9.09095 45.374 9.41588C46.0238 9.74081 46.5112 10.189 46.8361 10.7604C47.1611 11.3318 47.3235 11.9873 47.3235 12.7268ZM42.7689 14.2058C43.3179 14.2058 43.7269 14.0769 43.9958 13.8192C44.2647 13.5615 44.3992 13.1974 44.3992 12.7268C44.3992 12.2562 44.2647 11.8921 43.9958 11.6344C43.7269 11.3767 43.3179 11.2478 42.7689 11.2478H41.2059V14.2058H42.7689ZM53.0886 20.8613C52.1699 20.8613 51.3407 20.6652 50.6012 20.273C49.8729 19.8809 49.2959 19.3206 48.8701 18.5924C48.4556 17.8641 48.2483 17.0125 48.2483 16.0377C48.2483 15.0741 48.4612 14.2282 48.887 13.4999C49.3127 12.7604 49.8954 12.1946 50.6349 11.8024C51.3743 11.4103 52.2035 11.2142 53.1222 11.2142C54.041 11.2142 54.8701 11.4103 55.6096 11.8024C56.3491 12.1946 56.9318 12.7604 57.3575 13.4999C57.7833 14.2282 57.9962 15.0741 57.9962 16.0377C57.9962 17.0013 57.7777 17.8529 57.3407 18.5924C56.915 19.3206 56.3267 19.8809 55.576 20.273C54.8365 20.6652 54.0074 20.8613 53.0886 20.8613ZM53.0886 18.3739C53.6377 18.3739 54.1026 18.1722 54.4836 17.7688C54.8757 17.3655 55.0718 16.7884 55.0718 16.0377C55.0718 15.287 54.8813 14.71 54.5004 14.3066C54.1306 13.9033 53.6713 13.7016 53.1222 13.7016C52.562 13.7016 52.097 13.9033 51.7273 14.3066C51.3575 14.6988 51.1727 15.2758 51.1727 16.0377C51.1727 16.7884 51.3519 17.3655 51.7105 17.7688C52.0802 18.1722 52.5396 18.3739 53.0886 18.3739ZM71.4873 11.2478C72.6525 11.2478 73.5769 11.6008 74.2604 12.3066C74.9551 13.0125 75.3024 13.9929 75.3024 15.2478V20.7268H72.4453V15.6344C72.4453 15.0293 72.2828 14.5643 71.9579 14.2394C71.6441 13.9033 71.2072 13.7352 70.6469 13.7352C70.0867 13.7352 69.6441 13.9033 69.3192 14.2394C69.0055 14.5643 68.8486 15.0293 68.8486 15.6344V20.7268H65.9915V15.6344C65.9915 15.0293 65.829 14.5643 65.5041 14.2394C65.1903 13.9033 64.7534 13.7352 64.1931 13.7352C63.6329 13.7352 63.1903 13.9033 62.8654 14.2394C62.5517 14.5643 62.3948 15.0293 62.3948 15.6344V20.7268H59.5209V11.3487H62.3948V12.5251C62.6861 12.133 63.0671 11.8248 63.5377 11.6008C64.0083 11.3655 64.5405 11.2478 65.1343 11.2478C65.8402 11.2478 66.4677 11.3991 67.0167 11.7016C67.5769 12.0041 68.0139 12.4355 68.3276 12.9957C68.6525 12.4803 69.0951 12.0601 69.6553 11.7352C70.2156 11.4103 70.8262 11.2478 71.4873 11.2478ZM81.5813 20.8613C80.6625 20.8613 79.8334 20.6652 79.0939 20.273C78.3656 19.8809 77.7886 19.3206 77.3628 18.5924C76.9482 17.8641 76.7409 17.0125 76.7409 16.0377C76.7409 15.0741 76.9538 14.2282 77.3796 13.4999C77.8054 12.7604 78.388 12.1946 79.1275 11.8024C79.867 11.4103 80.6961 11.2142 81.6149 11.2142C82.5337 11.2142 83.3628 11.4103 84.1023 11.8024C84.8418 12.1946 85.4244 12.7604 85.8502 13.4999C86.276 14.2282 86.4888 15.0741 86.4888 16.0377C86.4888 17.0013 86.2704 17.8529 85.8334 18.5924C85.4076 19.3206 84.8194 19.8809 84.0687 20.273C83.3292 20.6652 82.5001 20.8613 81.5813 20.8613ZM81.5813 18.3739C82.1303 18.3739 82.5953 18.1722 82.9762 17.7688C83.3684 17.3655 83.5645 16.7884 83.5645 16.0377C83.5645 15.287 83.374 14.71 82.993 14.3066C82.6233 13.9033 82.1639 13.7016 81.6149 13.7016C81.0547 13.7016 80.5897 13.9033 80.2199 14.3066C79.8502 14.6988 79.6653 15.2758 79.6653 16.0377C79.6653 16.7884 79.8446 17.3655 80.2031 17.7688C80.5729 18.1722 81.0323 18.3739 81.5813 18.3739ZM93.2404 18.2898V20.7268H91.7782C90.7362 20.7268 89.9239 20.4747 89.3413 19.9705C88.7586 19.4551 88.4673 18.6204 88.4673 17.4663V13.7352H87.3245V11.3487H88.4673V9.06294H91.3413V11.3487H93.2236V13.7352H91.3413V17.4999C91.3413 17.78 91.4085 17.9817 91.5429 18.105C91.6774 18.2282 91.9015 18.2898 92.2152 18.2898H93.2404ZM94.2698 16.0209C94.2698 15.0573 94.4491 14.2114 94.8077 13.4831C95.1774 12.7548 95.676 12.1946 96.3034 11.8024C96.9309 11.4103 97.6312 11.2142 98.4043 11.2142C99.0654 11.2142 99.6424 11.3487 100.135 11.6176C100.64 11.8865 101.026 12.2394 101.295 12.6764V11.3487H104.169V20.7268H101.295V19.3991C101.015 19.8361 100.623 20.189 100.119 20.4579C99.6256 20.7268 99.0485 20.8613 98.3875 20.8613C97.6256 20.8613 96.9309 20.6652 96.3034 20.273C95.676 19.8697 95.1774 19.3038 94.8077 18.5755C94.4491 17.836 94.2698 16.9845 94.2698 16.0209ZM101.295 16.0377C101.295 15.3206 101.093 14.7548 100.69 14.3403C100.298 13.9257 99.8161 13.7184 99.2446 13.7184C98.6732 13.7184 98.1858 13.9257 97.7824 14.3403C97.3903 14.7436 97.1942 15.3038 97.1942 16.0209C97.1942 16.738 97.3903 17.3094 97.7824 17.7352C98.1858 18.1498 98.6732 18.3571 99.2446 18.3571C99.8161 18.3571 100.298 18.1498 100.69 17.7352C101.093 17.3206 101.295 16.7548 101.295 16.0377ZM110.063 20.8613C109.245 20.8613 108.517 20.7212 107.878 20.4411C107.24 20.161 106.736 19.78 106.366 19.2982C105.996 18.8052 105.789 18.2562 105.744 17.6512H108.584C108.618 17.9761 108.769 18.2394 109.038 18.4411C109.307 18.6428 109.638 18.7436 110.03 18.7436C110.388 18.7436 110.663 18.6764 110.853 18.5419C111.055 18.3963 111.156 18.2114 111.156 17.9873C111.156 17.7184 111.016 17.5223 110.736 17.3991C110.455 17.2646 110.002 17.119 109.374 16.9621C108.702 16.8052 108.142 16.6428 107.694 16.4747C107.245 16.2954 106.859 16.0209 106.534 15.6512C106.209 15.2702 106.046 14.7604 106.046 14.1218C106.046 13.5839 106.192 13.0966 106.483 12.6596C106.786 12.2114 107.223 11.8585 107.794 11.6008C108.377 11.3431 109.066 11.2142 109.862 11.2142C111.038 11.2142 111.962 11.5055 112.635 12.0882C113.318 12.6708 113.71 13.4439 113.811 14.4075H111.156C111.111 14.0825 110.965 13.8248 110.719 13.6344C110.483 13.4439 110.17 13.3487 109.778 13.3487C109.441 13.3487 109.184 13.4159 109.004 13.5503C108.825 13.6736 108.736 13.8473 108.736 14.0713C108.736 14.3403 108.876 14.5419 109.156 14.6764C109.447 14.8108 109.895 14.9453 110.5 15.0797C111.195 15.259 111.761 15.4383 112.198 15.6176C112.635 15.7856 113.016 16.0657 113.341 16.4579C113.677 16.8389 113.85 17.3543 113.862 18.0041C113.862 18.5531 113.705 19.0461 113.391 19.4831C113.089 19.9089 112.646 20.245 112.063 20.4915C111.492 20.738 110.825 20.8613 110.063 20.8613ZM121.351 20.7268L118.494 16.794V20.7268H115.62V8.28983H118.494V15.1638L121.334 11.3487H124.88L120.981 16.0545L124.914 20.7268H121.351Z" fill="#5F5FFF"/>
</svg>
